ffmpeg version 4.2.7-0ubuntu0.1 Copyright (c) 2000-2022 the FFmpeg developers
  built with gcc 9 (Ubuntu 9.4.0-1ubuntu1~20.04.1)
  configuration: --prefix=/usr --extra-version=0ubuntu0.1 --toolchain=hardened --libdir=/usr/lib/x86_64-linux-gnu --incdir=/usr/include/x86_64-linux-gnu --arch=amd64 --enable-gpl --disable-stripping --enable-avresample --disable-filter=resample --enable-avisynth --enable-gnutls --enable-ladspa --enable-libaom --enable-libass --enable-libbluray --enable-libbs2b --enable-libcaca --enable-libcdio --enable-libcodec2 --enable-libflite --enable-libfontconfig --enable-libfreetype --enable-libfribidi --enable-libgme --enable-libgsm --enable-libjack --enable-libmp3lame --enable-libmysofa --enable-libopenjpeg --enable-libopenmpt --enable-libopus --enable-libpulse --enable-librsvg --enable-librubberband --enable-libshine --enable-libsnappy --enable-libsoxr --enable-libspeex --enable-libssh --enable-libtheora --enable-libtwolame --enable-libvidstab --enable-libvorbis --enable-libvpx --enable-libwavpack --enable-libwebp --enable-libx265 --enable-libxml2 --enable-libxvid --enable-libzmq --enable-libzvbi --enable-lv2 --enable-omx --enable-openal --enable-opencl --enable-opengl --enable-sdl2 --enable-libdc1394 --enable-libdrm --enable-libiec61883 --enable-nvenc --enable-chromaprint --enable-frei0r --enable-libx264 --enable-shared
  libavutil      56. 31.100 / 56. 31.100
  libavcodec     58. 54.100 / 58. 54.100
  libavformat    58. 29.100 / 58. 29.100
  libavdevice    58.  8.100 / 58.  8.100
  libavfilter     7. 57.100 /  7. 57.100
  libavresample   4.  0.  0 /  4.  0.  0
  libswscale      5.  5.100 /  5.  5.100
  libswresample   3.  5.100 /  3.  5.100
  libpostproc    55.  5.100 / 55.  5.100
Routing option strict to both codec and muxer layer
[h264 @ 0x56503308cdc0] Reinit context to 480x864, pix_fmt: yuv420p
Input #0, mov,mp4,m4a,3gp,3g2,mj2, from '/var/www/html/project/media/video/original/7752ceb2-1175-40a8-8fbc-d81c6727fd2b.mov':
  Metadata:
    major_brand     : qt  
    minor_version   : 0
    compatible_brands: qt  
    creation_time   : 2024-09-19T10:00:05.000000Z
    com.apple.photos.originating.signature: AT4kvUagJhqGTUan2LNZpcwlNVQC
    com.apple.quicktime.creationdate: 2024-09-19T10:31:13+02:00
  Duration: 00:00:11.27, start: 0.000000, bitrate: 1675 kb/s
    Stream #0:0(und): Audio: aac (LC) (mp4a / 0x6134706D), 48000 Hz, stereo, fltp, 96 kb/s (default)
    Metadata:
      creation_time   : 2024-09-19T10:00:05.000000Z
      handler_name    : Core Media Audio
    Stream #0:1(und): Video: h264 (High), 1 reference frame (avc1 / 0x31637661), yuv420p(tv, smpte170m/bt470bg/smpte170m, progressive, left), 478x850 (480x864), 1574 kb/s, 30.18 fps, 30 tbr, 30k tbn, 60k tbc (default)
    Metadata:
      creation_time   : 2024-09-19T10:00:05.000000Z
      handler_name    : Core Media Video
      encoder         : 'avc1'
Input #1, png_pipe, from '/var/www/html/project/static/images/templates/logo_vertical.png':
  Duration: N/A, bitrate: N/A
    Stream #1:0: Video: png, 1 reference frame, rgba(pc), 1920x1080 [SAR 2835:2835 DAR 16:9], 25 tbr, 25 tbn, 25 tbc
[Parsed_scale_1 @ 0x5650330d3040] w:1280 h:720 flags:'bilinear' interl:0
[Parsed_scale_4 @ 0x5650330d2ac0] w:-1 h:720 flags:'bilinear' interl:0
[Parsed_scale_6 @ 0x5650330a9a80] w:1280 h:720 flags:'bilinear' interl:0
Stream mapping:
  Stream #0:1 (h264) -> split (graph 0)
  Stream #1:0 (png) -> scale (graph 0)
  overlay (graph 0) -> Stream #0:0 (libx264)
  Stream #0:0 -> #0:1 (aac (native) -> aac (native))
Press [q] to stop, [?] for help
[graph_1_in_0_0 @ 0x5650330d29c0] tb:1/48000 samplefmt:fltp samplerate:48000 chlayout:0x3
[h264 @ 0x5650330acf80] Reinit context to 480x864, pix_fmt: yuv420p
[Parsed_scale_1 @ 0x5650330e8880] w:1280 h:720 flags:'bilinear' interl:0
[Parsed_scale_4 @ 0x5650337b7dc0] w:-1 h:720 flags:'bilinear' interl:0
[Parsed_scale_6 @ 0x5650337b9700] w:1280 h:720 flags:'bilinear' interl:0
[graph 0 input from stream 0:1 @ 0x5650337bca00] w:478 h:850 pixfmt:yuv420p tb:1/30000 fr:30/1 sar:0/1 sws_param:flags=2
[graph 0 input from stream 1:0 @ 0x5650337bda40] w:1920 h:1080 pixfmt:rgba tb:1/25 fr:25/1 sar:2835/2835 sws_param:flags=2
[Parsed_scale_1 @ 0x5650330e8880] w:478 h:850 fmt:yuv420p sar:0/1 -> w:1280 h:720 fmt:yuv420p sar:0/1 flags:0x2
[Parsed_boxblur_2 @ 0x5650330e9dc0] luma_radius:36 luma_power:1 chroma_radius:18 chroma_power:1 alpha_radius:36 alpha_power:1 w:1280 chroma_w:640 h:720 chroma_h:360
[Parsed_setsar_3 @ 0x5650337b7000] w:1280 h:720 sar:0/1 dar:16/9 -> sar:1/1 dar:16/9
[Parsed_scale_4 @ 0x5650337b7dc0] w:478 h:850 fmt:yuv420p sar:0/1 -> w:405 h:720 fmt:yuva420p sar:0/1 flags:0x2
[Parsed_setsar_5 @ 0x5650337b8a40] w:405 h:720 sar:0/1 dar:9/16 -> sar:1/1 dar:9/16
[Parsed_overlay_8 @ 0x5650337badc0] main w:1280 h:720 fmt:yuv420p overlay w:405 h:720 fmt:yuva420p
[Parsed_overlay_8 @ 0x5650337badc0] [framesync @ 0x5650337baee8] Selected 1/30000 time base
[Parsed_overlay_8 @ 0x5650337badc0] [framesync @ 0x5650337baee8] Sync level 2
[Parsed_scale_6 @ 0x5650337b9700] w:1920 h:1080 fmt:rgba sar:2835/2835 -> w:1280 h:720 fmt:yuva420p sar:1/1 flags:0x2
[Parsed_setsar_7 @ 0x5650337ba200] w:1280 h:720 sar:1/1 dar:16/9 -> sar:1/1 dar:16/9
[Parsed_overlay_9 @ 0x5650337bbc80] main w:1280 h:720 fmt:yuv420p overlay w:1280 h:720 fmt:yuva420p
[Parsed_overlay_9 @ 0x5650337bbc80] [framesync @ 0x5650337bbde8] Selected 1/30000 time base
[Parsed_overlay_9 @ 0x5650337bbc80] [framesync @ 0x5650337bbde8] Sync level 2
[libx264 @ 0x5650330d5200] using SAR=1/1
[libx264 @ 0x5650330d5200] using cpu capabilities: MMX2 SSE2Fast SSSE3 SSE4.2 AVX FMA3 BMI2 AVX2
[libx264 @ 0x5650330d5200] profile High, level 3.1
[libx264 @ 0x5650330d5200] 264 - core 155 r2917 0a84d98 - H.264/MPEG-4 AVC codec - Copyleft 2003-2018 - http://www.videolan.org/x264.html - options: cabac=1 ref=1 deblock=1:0:0 analyse=0x3:0x113 me=hex subme=2 psy=1 psy_rd=1.00:0.00 mixed_ref=0 me_range=16 chroma_me=1 trellis=0 8x8dct=1 cqm=0 deadzone=21,11 fast_pskip=1 chroma_qp_offset=0 threads=22 lookahead_threads=5 sliced_threads=0 nr=0 decimate=1 interlaced=0 bluray_compat=0 constrained_intra=0 bframes=3 b_pyramid=2 b_adapt=1 b_bias=0 direct=1 weightb=1 open_gop=0 weightp=1 keyint=250 keyint_min=25 scenecut=40 intra_refresh=0 rc_lookahead=10 rc=crf mbtree=1 crf=18.0 qcomp=0.60 qpmin=0 qpmax=69 qpstep=4 ip_ratio=1.40 aq=1:1.00
Output #0, mp4, to '/var/www/html/project/media/video/watermarks/7752ceb2-1175-40a8-8fbc-d81c6727fd2b.mp4':
  Metadata:
    major_brand     : qt  
    minor_version   : 0
    compatible_brands: qt  
    com.apple.quicktime.creationdate: 2024-09-19T10:31:13+02:00
    com.apple.photos.originating.signature: AT4kvUagJhqGTUan2LNZpcwlNVQC
    encoder         : Lavf58.29.100
    Stream #0:0: Video: h264 (libx264), 1 reference frame (avc1 / 0x31637661), yuv420p, 1280x720 [SAR 1:1 DAR 16:9], q=-1--1, 30 fps, 15360 tbn, 30 tbc (default)
    Metadata:
      encoder         : Lavc58.54.100 libx264
    Side data:
      cpb: bitrate max/min/avg: 0/0/0 buffer size: 0 vbv_delay: -1
    Stream #0:1(und): Audio: aac (LC) (mp4a / 0x6134706D), 48000 Hz, stereo, fltp, delay 1024, 128 kb/s (default)
    Metadata:
      creation_time   : 2024-09-19T10:00:05.000000Z
      handler_name    : Core Media Audio
      encoder         : Lavc58.54.100 aac
Past duration 0.611992 too large
Past duration 0.623985 too large
Past duration 0.635994 too large
Past duration 0.642998 too large
Past duration 0.649986 too large
Past duration 0.661995 too large
Past duration 0.669991 too large
Past duration 0.677986 too large
Past duration 0.685997 too large
Past duration 0.693993 too large
Past duration 0.704994 too large
Past duration 0.715996 too large
Past duration 0.720985 too large
Past duration 0.730995 too large
Past duration 0.736992 too large
Past duration 0.742989 too large
Past duration 0.748985 too large
Past duration 0.754997 too large
Past duration 0.760994 too large
Past duration 0.766991 too large
Past duration 0.772987 too large
Past duration 0.778999 too large
Past duration 0.780998 too large
Past duration 0.786995 too large
Past duration 0.792992 too large
Past duration 0.798988 too large
Past duration 0.800987 too large
Past duration 0.802986 too large
Past duration 0.808998 too large
Past duration 0.814995 too large
Past duration 0.815987 too large
Past duration 0.820000 too large
Past duration 0.823997 too large
Past duration 0.827995 too large
Past duration 0.831993 too large
Past duration 0.835991 too large
Past duration 0.839989 too large
Past duration 0.843987 too large
Past duration 0.851997 too large
Past duration 0.859993 too large
Past duration 0.867989 too large
Past duration 0.875999 too large
Past duration 0.883995 too large
Past duration 0.885994 too large
Past duration 0.887993 too large
Past duration 0.894997 too large
Past duration 0.901985 too large
Past duration 0.908989 too large
Past duration 0.907997 too large
Past duration 0.910988 too large
Past duration 0.913994 too large
Past duration 0.911995 too large
Past duration 0.909996 too large
Past duration 0.907997 too large
Past duration 0.917992 too large
Past duration 0.927986 too large
Past duration 0.951988 too large
Past duration 0.979988 too large
Past duration 0.613991 too large
*** dropping frame 268 from stream 0 at ts 266
Past duration 0.627998 too large
Past duration 0.633995 too large
Past duration 0.639992 too large
Past duration 0.645988 too large
Past duration 0.651985 too large
Past duration 0.653999 too large
Past duration 0.659996 too large
Past duration 0.665993 too large
Past duration 0.671989 too large
    Last message repeated 3 times
Past duration 0.680992 too large
Past duration 0.689995 too large
Past duration 0.695000 too large
Past duration 0.699989 too large
Past duration 0.704994 too large
Past duration 0.709999 too large
Past duration 0.714989 too large
Past duration 0.724998 too large
Past duration 0.728996 too large
Past duration 0.736992 too large
Past duration 0.738991 too large
Past duration 0.740990 too large
Past duration 0.746986 too large
Past duration 0.752998 too large
Past duration 0.758995 too large
Past duration 0.764992 too large
Past duration 0.767998 too large
Past duration 0.773994 too large
Past duration 0.779991 too large
Past duration 0.785988 too large
Past duration 0.792000 too large
Past duration 0.797997 too large
Past duration 0.803993 too large
Past duration 0.809990 too large
Past duration 0.815987 too large
Past duration 0.821999 too large
Past duration 0.827995 too large
Past duration 0.833992 too large
Past duration 0.839989 too large
Past duration 0.845985 too large
Past duration 0.851997 too large
Past duration 0.857994 too large
Past duration 0.863991 too large
Past duration 0.874992 too large
Past duration 0.880989 too large
Past duration 0.886986 too large
Past duration 0.889000 too large
Past duration 0.890999 too large
Past duration 0.898994 too large
Past duration 0.906990 too large
Past duration 0.917992 too large
Past duration 0.925987 too large
Past duration 0.933998 too large
Past duration 0.937996 too large
Past duration 0.941994 too large
Past duration 0.949989 too large
Past duration 0.957985 too large
Past duration 0.961998 too large
Past duration 0.965996 too large
Past duration 0.969994 too large
Past duration 0.980995 too large
Past duration 0.986992 too large
Past duration 0.992989 too large
[Parsed_overlay_8 @ 0x5650337badc0] [framesync @ 0x5650337baee8] Sync level 1
[Parsed_overlay_8 @ 0x5650337badc0] [framesync @ 0x5650337baee8] Sync level 0
[Parsed_overlay_9 @ 0x5650337bbc80] [framesync @ 0x5650337bbde8] Sync level 0
No more output streams to write to, finishing.
frame=  339 fps= 34 q=-1.0 Lsize=    5596kB time=00:00:11.20 bitrate=4093.3kbits/s dup=0 drop=1 speed=1.14x    
[AVIOContext @ 0x565033089280] Statistics: 0 seeks, 20 writeouts
video:5403kB audio:180kB subtitle:0kB other streams:0kB global headers:0kB muxing overhead: 0.231308%
Input file #0 (/var/www/html/project/media/video/original/7752ceb2-1175-40a8-8fbc-d81c6727fd2b.mov):
  Input stream #0:0 (audio): 524 packets read (134144 bytes); 524 frames decoded (536576 samples); 
  Input stream #0:1 (video): 340 packets read (2217664 bytes); 340 frames decoded; 
  Total: 864 packets (2351808 bytes) demuxed
Input file #1 (/var/www/html/project/static/images/templates/logo_vertical.png):
  Input stream #1:0 (video): 1 packets read (93903 bytes); 1 frames decoded; 
  Total: 1 packets (93903 bytes) demuxed
Output file #0 (/var/www/html/project/media/video/watermarks/7752ceb2-1175-40a8-8fbc-d81c6727fd2b.mp4):
  Output stream #0:0 (video): 339 frames encoded; 339 packets muxed (5532891 bytes); 
  Output stream #0:1 (audio): 524 frames encoded (536576 samples); 525 packets muxed (184590 bytes); 
  Total: 864 packets (5717481 bytes) muxed
[AVIOContext @ 0x5650330d3a00] Statistics: 2 seeks, 25 writeouts
[libx264 @ 0x5650330d5200] frame I:2     Avg QP:16.74  size: 41844
[libx264 @ 0x5650330d5200] frame P:151   Avg QP:18.73  size: 21528
[libx264 @ 0x5650330d5200] frame B:186   Avg QP:19.98  size: 11816
[libx264 @ 0x5650330d5200] consecutive B-frames: 21.2% 13.0% 11.5% 54.3%
[libx264 @ 0x5650330d5200] mb I  I16..4: 37.0% 40.1% 22.9%
[libx264 @ 0x5650330d5200] mb P  I16..4: 28.2% 29.0%  4.5%  P16..4: 15.7%  9.3%  4.4%  0.0%  0.0%    skip: 8.9%
[libx264 @ 0x5650330d5200] mb B  I16..4:  8.7%  6.1%  0.8%  B16..8: 26.2% 11.2%  1.7%  direct:11.6%  skip:33.6%  L0:44.0% L1:43.5% BI:12.5%
[libx264 @ 0x5650330d5200] 8x8 transform intra:45.0% inter:18.3%
[libx264 @ 0x5650330d5200] coded y,uvDC,uvAC intra: 31.5% 39.5% 8.1% inter: 12.7% 29.4% 2.0%
[libx264 @ 0x5650330d5200] i16 v,h,dc,p: 24% 41%  9% 26%
[libx264 @ 0x5650330d5200] i8 v,h,dc,ddl,ddr,vr,hd,vl,hu: 12% 48% 16%  3%  4%  3%  7%  3%  4%
[libx264 @ 0x5650330d5200] i4 v,h,dc,ddl,ddr,vr,hd,vl,hu: 22% 29% 15%  5%  6%  4%  9%  4%  6%
[libx264 @ 0x5650330d5200] i8c dc,h,v,p: 48% 30% 11% 11%
[libx264 @ 0x5650330d5200] Weighted P-Frames: Y:1.3% UV:0.7%
[libx264 @ 0x5650330d5200] kb/s:3916.60
[aac @ 0x565033090480] Qavg: 342.989
[AVIOContext @ 0x565033092240] Statistics: 20549632 bytes read, 618 seeks
[AVIOContext @ 0x5650330920c0] Statistics: 93903 bytes read, 0 seeks
